/* XPM */
static char * ball2_xpm[] = {
"8 8 4 1",
" 	c None",
".	c #000000",
"+	c #FF0000",
"@	c #FFFF00",
"..++++..",
".+++@++.",
"++.+++++",
"+.++++.+",
"+.++++.+",
"+++++.++",
".++@+++.",
"..++++.."};
