/* XPM */
static char * complete_screen_xpm[] = {
"160 48 5 1",
" 	c None",
".	c #000000",
"+	c #008000",
"@	c #0000FF",
"#	c #FFFF00",
"....+.......++++++++++++++++.@@@.+.@.++.@@@@@@@@@@@@@@@@@@@@@@@@@@@@@@@@@@@@@@@@@@@@@@@@@@@@@@@@@@@@@@@@@@@@@@@@@@@@@@@@@@@@@@@@@@@@@@@.++++.....+++++++++++++..",
"..+.+........+.++++++++++++..@@..+.@.+.@@@@@@@@@@@@@@@@@@@@@@@@@@@@@@@@@@@@@@@@@@@@@@@@@@@@@@@@@@@@@@@@@@@@@@@@@@@@@@@@@@@@@@@@@@@@@@@@@.++++...++++++++.+++++..",
".+.+..+..+...+++.+++++++++++..@.++...+.@@@@@@@@@@@@@@@@@@@@@@@@@@@@@@@@@@@@@@@@@@@@@@@@@@@@@@@@@@@@@@@@@@@@@@@@@@@@@@@@@@@@@@@@@@@@@@@@@@.++++.+++++.++.+++++...",
".+......+.....+.+++++++++++++...+++.++.@@@@@@@@@@@@@@@@@@@@@@@@@@@@@@@@@@@@@@@@@@@@@@@@@@@@@@@@@@@@@@@@@@@@@@@@@@@@@@@@@@@@@@@@@@@@@@@@@@.+++++++++++++++.....++",
"+....+..+......+++.+++++++++++....+.+.@@@@@@@@@@@@@@@@@@@@@@@@@@@@@@@@@@@@@@@@@@@@@@@@@@@@@@@@@@@@@@@@@@@@@@@@@@@@@@@@@@@@@@@@@@@@@@@@@@@@.++++++++++.+++....+..",
"...++.+++..+......+++++++++++..@..+++.@@@@@@@@@@@@@@@@@@@@@@@@@@@@@@@@@@@@@@@@@@@@@@@@@@@@@@@@@@@@@@@@@@@@@@@@@@@@@@@@@@@@@@@@@@@@@@@@@@@@@.+++++++++++.++......",
"..+...+..++..+....+++.++++++++...++..@@@@@@@@@@@@@@@@@@@@@@@@@@@@@@@@@@@@@@@@@@@@@@@@@@@@@@@@@@@@@@@@@@@@@@@@@@@@@@@@@@@@@@@@@@@@@@@@@@@@@@.+++++++.+++.++++...+",
".+....+.........+..+.++++++++++.++.@@@@@@@@@@@@@@@@@@@@@@@@@@@@@@@@@@@@@@@@@@@@@@@@@@@@@@@@@@@@@@@@@@@@@@@@@@@@@@@@@@@@@@@@@@@@@@@@@@@@@@@@.++++++.++++..+++++++",
".+.....++++........++++++++++++++.@@@@@@@@@@@@@@@@@@@@@@@@@@@@@@@@@@@@@@@@@@@@@@@@@@@@@@@@@@@@@@@@@@@@@@@@@@@@@@@@@@@@@@@@@@@@@@@@@@@@@@@@.+++++++++.++...+++++.",
".+.........++......+++++++++++++.@@@@@@@@@@@@@@@@@@@@@@@@@@@@@@@@@@@@@@@@@@@@@@@@@@@@@@@@@@@@@@@@@@@@@@@@@@@@@@@@@@@@@@@@@@@@@@@@@@@@@@@@@.+++++++++++....+++...",
"..+...........++++++.++++++++++++......@@@@@@@@@@@@@@@@@@@@@@@@@@@@@@@@@@@@@@@@@@@@@@@@@@@@@@@@@@@@@@@@@@@@@@@@@@@@@@@@@@@@@@@@@@@@@@@@@@.+++++++.+.++..+.......",
"..+..++.++...++....++.+.+++++++++++++++..@@@@@@@@@@@@@@@@@@@@@@@@@@@@@@@@@@@@@@@@@@@@@@@@@@@@@@@@@@@@@@@@@@@@@@@@@@@@@@@@@@@@@@@@@@@@@@@@.+++++++++++..+........",
"..+...+.+....+......++++++++++++++++..+++..@@@@@@@@@@@@@@@@@@@@@@@@@@@@@@@@@@@@@@@@@@@@@@@@@@@@@@@@@@@@@@@@@@@@@@@@@@@@@@@@@@@@@@@@@@@@@@.++++++++.+...+........",
"..+...++....+.+......++.+++++++++...@@..+++.@@@@@@@@@@@@@@@@@@@@@@@@@@@@@@@@@@@@@@@@@@@@@@@@@@@@@@@@@@@@@@@@@@@@@@@@@@@@@@@@@@@@@@@@@@@@@.++++++++++...+.....++.",
"..+....++++++.++......++++++++++.@@@@@@@..+.@@@@@@@@@@@@@@@@@@@@@@@@@@@@@@@@@@@@@@@@@@@@@@@@@@@@@@@@@@@@@@@@@@@@@@@@@@@@@@@@@@@@@@@@@@@@@.+++++++.++....+..++..+",
".+...++..+....+......+++++++++++.@@@@@@@@.++.@@@@@@@@@@@@@@@@@@@@@@@@@@@@@@@@@@@@@@@@@@@@@@@@@@@@@@@@@@@@@@@@@@@@@@@@@@@@@@@@@@@@@@@@@@@@.++++++++++.....++.....",
"+...+.....+........+++.++++++++..@@@@@@@@..+.@@@@@@@@@@@@@@@@@@@@@@@@@@@@@@@@@@@@@@@@@@@@@@@@@@@@@@@@@@@@@@@@@@@@@@@@@@@@@@@@@@@@@@@@@@@@.++++++++.+.....+......",
".+........+.......+++++++.+++++.@@@@@@@@@@.+.@@@@@@@@@@@@@@@@@@@@@@@@@@@@@@@@@@@@@@@@@@@@@@@@@@@@@@@@@@@@@@@@@@@@@@@@@@@@@@@@@@@@@@@@@@@@.+++++++++++.........++",
".+...............++.....+++++++.@@@@@@@@@@.++..@@@@@@@@@@@@@@@@@@@@@@@@@@@@@@@@@@@@@@@@@@@@@@@@@@@@@@@@@@@@@@@@@@@@@@@@@@@@@@@@@@@@@@@@@@@.+++++++++++..++++++++",
"..+.............+........++++++.@@@@@@@@@..++++.@@@@@@@@@@@@@@@@@@@@@@@@@@@@@@@@@@@@@@@@@@@@@@@@@@@@@@@@@@@@@@@@@@@@@@@@@@@@@@@@@@@@@@@@@@.++++++++.++.++.+++++.",
"..+...+...+...+++.........+++++.@@@@@@@@@.++..++.@@@@@@@@@@@@@@@@@@@@@@@@@@@@@@@@@@@@@@@@@@@@@@@@@@@@@@@@@@@@@@@@@@@@@@@@@@@@@@@@@@@@@@@@@.+++++++++++++........",
"..+...++.+...++..+........+.+++..@@@@@@@..++...+.@@@@@@@@@@@@@@@@@@@@@@@#@@@@#@@@@@#@@@#@@@@@@@@#@@@@@@@@@@@@@@@@@@@@@@@@@@@@@@@@@@@@@@@@@@.+++++++++.+...+.....",
".+.....++++.++...+........++++++.@@@@@@@.++.@@@.@@@@@@@@@@@@@@@@@@@@@@@@@@@@@@@@#@@@#@@@@@#@@#@@@@@@@@#@@@@@#@@@@@@@@@@@@@@@@@@@@@@@@@@@@@@.++++++++.++...+.....",
".+........++.....++.......++.++++.@@@@@@.+.@@@@@@@@@@@@@@@@@@@@@@#@@@@#@@@@#@@#@@@#@@@#@#@@#@@@@@#@@@@@@@@@@@@@@@@@@@@@@@@@@@@@@@@@@@@@@@@@@.++++++++++....+....",
".+.......++..++...+...+++++++++++.@@@@@@..@@@@@@@@@@@@@@@@@@#@@@@@@@@@@@@#@@@#@#@####@@#@#@@@##@@@@@@#@@#@@@@@@@#@@@@@@@@@@@@@@@@@@@@@@@@@@@.+++++++.++.....+..+",
"..+.+....+.++++......+++++.++++++.@@@@@@@@@@@@@@@@@@@@@@#@@@@@@@@@@@@#@@@@#@#@@##@#@##@##@##@@@@#@#@@@@#@@@@#@@@@@@@#@@@@#@@@@@@@@@@@@@@@@@@.++++++.+++.....+.+.",
"...+....++.+++++....++....+.+++++.@@@@@@@@@@@@@@@@@@@#@@@@@@@#@@@@#@@@@#@@@@@##@@#@####@###@#@#@@@@#@#@@@#@@@@#@@@@@@@@#@@@@@@@@@@@@@@@@@@@@@.+++++++.+.....++..",
"...+...+++..++++....+.....+++++++.@@@@@@@@@@@@@@@@@@@@@@@@@@@@@@@@@@#@@@@#@@##@##@##@#@##@##@#@#@#@@@@##@@@@#@@@@#@@@@@@@@@@@@@@@@@@@@@@@@@@@.+++++++++.....+...",
"..+++..+++..++++....+......++.+++.@@@@@@@@@@@@@@@@#@@@@#@@@#@@@@#@@#@@##@@@#@@#@###@######@####@@@@@@#@@##@#@@#@@@@@@#@@@@@#@@@@@@@@@@@@@@@@@.++++++++.....+....",
".+...+.+++..++++....+......++++++.@@@@@@@@@@@@@@@@@@@@@@@#@@@@@#@@@@#@@@@@#@#@@##@##########@####@@#@@@#@@#@@@@#@@@#@@@@#@@@@@@@@@@@@@@@@@@@@.++++++++.....+....",
".+...+.+++..++++...++......+.++++.@@@@@@@@@@@@@@@#@@@@@@@@@@#@@@@#@#@@@@#@@@#@##@#############@#@#@@@@@@#@@##@@@@#@@@@#@@@@@@@@#@@@@@@@@@@@@@.++++++++....+.....",
"+....+.++...++++.++++......++++++.@@@@@@@@@@@@@@@@@@@..#@@@@@@#@@@@@@@#@@#@#@##@#############@###@#@#@#@@@#@@@.....@@@@@@@#@@#@@@@@@@@@@@@@@@@.+++++++....+.....",
"....+..+.....++.++..++......+++++.@@@@@@@@@@@@@@@@...++..............+++++++++++..########..+++++++++++++..@@.+++++....@@@@@@@.....@@@@@@@@@@@.+++++.++...+.....",
"..++.........+++.....+......++++++.@@@............++++.+++++++++++++++.++.++++++++++++..++++++..++++.+..+++..++.+.+++++.@@@...+++++.....@@@@....++++++++...+....",
"............++++++...+......+.++++.....+++.++++++++...+..++++++..+..+++++++.+++++.++.++++++..+++++++.++++++++.+++++++.++...++++.+.++++++....++..++++++++....+...",
"......+.....++++++...+.....+++++++...+++..++.++++.+++++.++..+.+++++..++++++.+..++++++.++++++++.++.+++++++#.+.+++++..++.++++..+++++..+..+++++++..++++++.+.....+..",
"..+........+++++++...+.....++++++++.+...+++.+++++.+++.++.++++++++++++++++++++++++++++++.+++++++++++++..++..+++++++++++..+++.++++++++++++++...++.++++++.++.....+.",
"..+...+....++++++.........+++.+++++...++.+++.++.+++.++++++++++++++++.+++++++++++++++++++..++++++++++++++++++......++++.++.+++++.++++++.++++++++.+++++++++.....+.",
"..++..+.....+++++.........+.+++++++..+++.++++++.++++++++++++#+.++.+++++++++.++++.+.+++++++..+++.++.+++++++++++++++++++++++++#+++..++.+.++++.+++.++++++++++...+..",
"...+..++....+++++.........++++++++++.++++++++++++.++...+.++..++++++++++.+++++++.++++++..+++..++++..+.+..++++++.++++++++++++++.++.+++.+++++..+.+.+++++++.++...+..",
"...+...+...+++++..........++.+++++++..+++..++++.+++..++++.+..+++++++#++++++++++++++.++++++...++++.++++++++...++..+++++++++.+++++++++.+++++.+++..++++++++++..+...",
"..++...+...++++++.........+.++++++++...++..+.+#+.+++++.+.+.+++.++++.++++++++++++++++..++++.++..+++..+++++++++++++.++.++++++++.+.++++.+++.+.++...++++++++.+...+..",
"..++...+...+++++++.......+++.++++++++..+.++..+++++..........+.++.++++.++++.+....+.++++++.++.++..++++++++++++#++.++++++.++..+..+..++++++++++++..+++++++++++...+..",
"...+...+...+++++++.......++++++++++++..++.+.+++...++.++..+++.....+.+++.+.+..+++....++.....++...+...++++.++....+..++++++++.+++++++++++++++++++..+++++++.+++...+..",
"...++.++...+++++++.......++.+++++++++...+.+.++++.....+..++..++.++.......+...++.....++..++.+..........+++.+++++++.++++.++.+++.+.+++.+.++.+++.+.+++++++++++....+..",
"....+.+....+++++++.......+.++.+++++++...+.+++.+...+.++..++.++++.++...++.+....+.+++++.++++++++..+.+++......+..++++.....+.++..+++....+++++..++..+++++++++.+...+...",
"....+.....++++++++.......+++++++++++++..+++..++..+++++++++++.+++++++++++.....+..+++.+++..++..........+....+.++++..+++..+.++...+++++.++...+++..++++++++.++...+...",
"..........++++++++......++++.+++++++++..++...+...+..+++.......+.+...+........+++.........................+++..+......+++++++++++++++..........++++++++++........"};
