/* XPM */
static char * complete_screen_xpm[] = {
"128 72 5 1",
" 	c None",
".	c #008000",
"+	c #000000",
"@	c #0000FF",
"#	c #FFFF00",
"......+@@@@@@@@@@@@@@@@@@@@@@@@@@@@@@@@@@@@@@@@@@@@@@@@@@@@@@@@@@@@@@@@@@@@@@@@@@@@@@@@@@@@@@@@@@@@@@@@@@@@@+.......+@@@+.......",
"......+@@@@@@@@@@@@@@@@@@@@@@@@@@@@@@@@@@@@@@@@@@@@@@@@@@@@@@@@@@@@@@@@@@@@@@@@@@@@@@@@@@@@@@@@@@@@@@@@@@@@@+.......++@@@+......",
".....+@@@@@@@@@@@@@@@@@@@@@@@@@@@@@@@@@@@@@@@@@@@@@@@@@@@@@@@@@@@@@@@@@@@@@@@@@@@@@@@@@@@@@@@@@@@@@@@@@@@@@@+......++.+@@+......",
".....+@@@@@@@@@@@@@@@@@@@@@@@@@@@@@@@@@@@@@@@@@@@@@@@@@@@@@@@@@@@@@@@@@@@@@@@@@@@@@@@@@@@@@@@@@@@@@@@@@@@@@@@+.....+@+@@+.......",
"....+@@+++@@@@@+@@@@@@@@@@@@@@@@@@@@@@@@@@@@@@@@@@@@@@@@@@@@@@@@@@@@@@@@@@@@@@@@@@@@@@@@@@@@@@@@@@@@@@@@@@@@@+......+@@++.......",
"....+@@@+.+@@++@@@@@@@@@@@@@@@@@@@@@@@@@@@@@@@@@@@@@@@@@@@@@@@@@@@@@@@@@@@@@@@@@@@@@@@@@@@@@@@@@@@@@@@@@@@@@@@+.....+@+.++......",
"....+@@@@+.++.+@@@++@@@@@@@@@@@@@@@@@@@@@@@@@@@@@@@@@@@@@@@@@@@@@@@@@@@@@@@@@@@@@@@@@@@@@@@@@@@@@@@@@@@@@@@@@@+......+@+@+......",
".....+@@@+.+.+@@@+..++@@@@@@@@@@@@@@@@@@@@@@@@@@@@@@@@@@@@@@@@@@@@@@@@@@@@@@@@@@@@@@@@@@@@@@@@@@@@@@@@@@@@@@@@@+.....+@@@@+.....",
".....+@@@+...+@@+..+@@+++@@@@@@@@@@@@@@@@@@@@@@@@@@@@@@@@@@@@@@@@@@@@@@@@@@@@@@@@@@@@@@@@@@@@@@@@@@@@@@@@@@@@@@+....+@++@@@+....",
"......+@@@+..+@+..+@@@+..+@@@@@@@@@@@@@@@@@@@@@@@@@@@@@@@@@@@@@@@@@@@@@@@@@@@@@@@@@@@@@@@@@@@@@@@@@@@@@@@@@@@@@+....+@+.+@@@+...",
".......+@@+.+@@+.+@@@@+...+@@@@@@@@@@@@@@@@@@@@@@@@@@@@@@@@@@@@@@@@@@@@@@@@@@@@@@@@@@@@@@@@@@@@@@@@@@@@@@@@@@@@@+....+@+@@@@+...",
"......+@@@+.+@+..+@@@@@++.+@@@@@@@@@@@@@@@@@@@@@@@@@@@@@@@@@@@@@@@@@@@@@@@@@@@@@@@@@@@@@@@@@@@@@@@@@@@@@@@@@@@@@+.....+@@@@+....",
"......+@@@+.+@+..+@@@@@@@+@@@@@@@@@@@@@@@@@@@@@@@@@@@@@@@@@@@@@@@@@@@@@@@@@@@@@@@@@@@@@@@@@@@@@@@@@@@@@@@@@@@@@@@+....+@@@+.....",
".....++@@++.+@+.+@@@@@@@@@@@@@@@@@@@@@@@@@@@@@@@@@@@@@@@@@@@@@@@@@@@@@@@@@@@@@@@@@@@@@@@@@@@@@@@@@@@@@@@@@@@@@@@@@+....+@+......",
"......++@+..+++.+@@@@@@@@@@@@@@@@@@@@@@@@@@@@@@@@@@@@@@@@@@@@@@@@@@@@@@@@@@@@@@@@@@@@@@@@@@@@@@@@@@@@@@@@@@@@@@@@@@+....+.....+.",
".......+++...+..+@@@@@@@@@@@@@@@@@@@@@@@@@@@@@@@@@@@@@@@@@@@@@@@@@@@@@@@@@@@@@@@@@@@@@@@@@@@@@@@@@@@@@@@@@@@@@@@@@@+............",
"........++++.+.+@@@@@@@@@@@@@@@@@@@@@@@@@@@@@@@@@@@@@@@@@@@@@@@@@@@@@@@@@@@@@@@@@@@@@@@@@@@@@@@@@@@@@@@@@@@@@@@@@@@@+..........+",
".......++@++...+@@@@@@@@@@@@@@@@@@@@@@@@@@@@@@@@@@@@@@@@@@@@@@@@@@@@@@@@@@@@@@@@@@@@@@@@@@@@@@@@@@@@@@@@@@@@@@@@@@@@@+..........",
"........+++..++@@@@@@@@@@@@@@@@@@@@@@@@@@@@@@@@@@@@@@@@@@@@@@@@@@@@@@@@@@@@@@@@@@@@@@@@@@@@@@@@@@@@@@@@@@@@@@@@@@@@@@+.......+..",
".........+..+@@@@@@@@@@@@@@@@@@@@@@@@@@@@@@@@@@@@@@@@@@@@@@@@@@@@@@@@@@@@@@@@@@@@@@@@@@@@@@@@@@@@@@@@@@@@@@@@@@@@@@@@+......+...",
"...........+@@@@@@@@@@@@@@@@@@@@@@@@@@@@@@@@@@@@@@@@@@@@@@@@@@@@@@@@@@@@@@@@@@@@@@@@@@@@@@@@@@@@@@@@@@@@@@@@@@@@@@@@+.........+.",
"..........+@@@@@@@@@@@@@@@@@@@@@@@@@@@@@@@@@@@@@@@@@@@@@@@@@@@@@@@@@@@@@@@@@@@@@@@@@@@@@@@@@@@@@@@@@@@@@@@@@@@@@@@@@+...........",
"...........++++++@@@@@@@@@@@@@@@@@@@@@@@@@@@@@@@@@@@@@@@@@@@@@@@@@@@@@@@@@@@@@@@@@@@@@@@@@@@@@@@@@@@@@@@@@@@@@@@@@@+.......+.+..",
".+...............++@@@@@@@@@@@@@@@@@@@@@@@@@@@@@@@@@@@@@@@@@@@@@@@@@@@@@@@@@@@@@@@@@@@@@@@@@@@@@@@@@@@@@@@@@@@@@@@@+...........+",
"..............++...++@@@@@@@@@@@@@@@@@@@@@@@@@@@@@@@@@@@@@@@@@@@@@@@@@@@@@@@@@@@@@@@@@@@@@@@@@@@@@@@@@@@@@@@@@@@@@@+........+.++",
".+.........+++@@++...+@@@@@@@@@@@@@@@@@@@@@@@@@@@@@@@@@@@@@@@@@@@@@@@@@@@@@@@@@@@@@@@@@@@@@@@@@@@@@@@@@@@@@@@@@@@@@+..........++",
"..........+@@@@@@@++.+@@@@@@@@@@@@@@@@@@@@@@@@@@@@@@@@@@@@@@@@@@@@@@@@@@@@@@@@@@@@@@@@@@@@@@@@@@@@@@@@@@@@@@@@@@@@@+.......+..++",
"..........+@@@@@@@@+..+@@@@@@@@@@@@@@@@@@@@@@@@@@@@@@@@@@@@@@@@@@@@@@@@@@@@@@@@@@@@@@@@@@@@@@@@@@@@@@@@@@@@@@@@@@@@+..........++",
"+........++@@@@@@@@++.+@@@@@@@@@@@@@@@@@@@@@@@@@@@@@@@@@@@@@@@@@@@@@@@@@@@@@@@@@@@@@@@@@@@@@@@@@@@@@@@@@@@@@@@@@@@@+........+.++",
"...+.....+@@@@@@@@@@+.+@@@@@@@@@@@@@@@@@@@@@@@@@@@@@@@@@@@@@@@@@@@@@@@@@@@@@@@@@@@@@@@@@@@@@@@@@@@@@@@@@@@@@@@@@@@@+...........+",
"++.......+@@@@@@@@@@+..++@@@@@@@@@@@@@@@@@@@@@@@@@@@@@@@@@@@@@@@@@@@@@@@@@@@@@@@@@@@@@@@@@@@@@@@@@@@@@@@@@@@@@@@@@@@+...........",
"+++......+@@@@@@@@@++....+@@@@@@@@@@@@@@@@@@@@@@@@@@@@@@@@@@@@@@@@@@@@@@@@@@@@@@@@@@@@@@@@@@@@@@@@@@@@@@@@@@@@@@@@@@+........+..",
"++++.....+@@@@@@@@@+..++..+@@@@@@@@@@@@@@@@@@@@@@@@@@@@@@@@@@@@@@@@@@@@@@@@@@@@@@@@@@@@@@@@@@@@@@@@@@@@@@@@@@@@@@@@@+...........",
"++++.+...++@@@@@@@++..+++.+@@@@@@@@@@@@@@@@@@@@@@@#@@@@#@@@@@#@@@#@@@@@@@@#@@@@@@@@@@@@@@@@@@@@@@@@@@@@@@@@@@@@@@@@@@+.........+",
"++++......+@@@@@@@+..+@@@+@@@@@@@@@@@@@@@@@@@@@@@@@@@@@@@@#@@@#@@@@@#@@#@@@@@@@@#@@@@@#@@@@@@@@@@@@@@@@@@@@@@@@@@@@@@+........+.",
"++++..+....+@@@@@@+.+@@@@@@@@@@@@@@@@@@@@@@#@@@@#@@@@#@@#@@@#@@@#@#@@#@@@@@#@@@@@@@@@@@@@@@@@@@@@@@@@@@@@@@@@@@@@@@@@@+.........",
"++++.......+@@@@@@++@@@@@@@@@@@@@@@@@@#@@@@@@@@@@@@#@@@#@#@####@@#@#@@@##@@@@@@#@@#@@@@@@@#@@@@@@@@@@@@@@@@@@@@@@@@@@@+.......+.",
"+++.+......+@@@@@@@@@@@@@@@@@@@@@@#@@@@@@@@@@@@#@@@@#@#@@##@#@##@##@##@@@@#@#@@@@#@@@@#@@@@@@@#@@@@#@@@@@@@@@@@@@@@@@@+......+..",
"++++.+.....+@@@@@@@@@@@@@@@@@@@#@@@@@@@#@@@@#@@@@#@@@@@##@@#@####@###@#@#@@@@#@#@@@#@@@@#@@@@@@@@#@@@@@@@@@@@@@@@@@@@@@+.......+",
"++++.......+@@@@@@@@@@@@@@@@@@@@@@@@@@@@@@@@@@#@@@@#@@##@##@##@#@##@##@#@#@#@@@@##@@@@#@@@@#@@@@@@@@@@@@@@@@@@@@@@@@@@@+........",
"+++++..+...+@@@@@@@@@@@@@@@@#@@@@#@@@#@@@@#@@#@@##@@@#@@#@###@######@####@@@@@@#@@##@#@@#@@@@@@#@@@@@#@@@@@@@@@@@@@@@@@+........",
"+++++......+@@@@@@@@@@@@@@@@@@@@@@@#@@@@@#@@@@#@@@@@#@#@@##@##########@####@@#@@@#@@#@@@@#@@@#@@@@#@@@@@@@@@@@@@@@@@@@@+........",
"+++++.+....+@@@@@@@@@@@@@@@#@@@@@@@@@@#@@@@#@#@@@@#@@@#@##@#############@#@#@@@@@@#@@##@@@@#@@@@#@@@@@@@@#@@@@@@@@@@@@@+........",
"+++++......+@@@@@@@@@@@@@@@@@@@++#@@@@@@#@@@@@@@#@@#@#@##@#############@###@#@#@#@@@#@@@+++++@@@@@@@#@@#@@@@@@@@@@@@@@@@+.......",
"++++++.....+@@@@@@@@@@@@@@@@+++..++++++++++++++...........++########++.............++@@+.....++++@@@@@@@+++++@@@@@@@@@@@+.....+.",
"++++++......+@@@++++++++++++....+...............+..+............++......++....+.++...++..+.+.....+@@@+++.....+++++@@@@++++......",
"++++++.+....+++++...+........+++.++......++.++.......+.....+..+......++.......+........+.......+..+++....+.+......++++..++......",
"+++++.......+++...++..+....+.....+..++.+.....++......+.++......+........+..+.......#+.+.....++..+....++.....++.++.......++......",
"+++++........+.+++...+.....+...+..+..............................+.............++..++...........++...+..............+++..+......",
"++++...+.....+++..+...+..+...+................+...................++..................++++++....+..+.....+......+........+......",
"++++.+.......++...+......+..............+..+.........+....+.+.......++...+..+.............................++..+.+....+...+......",
"++++..........+............+..+++.+..++..........+.......+......++...++....++.+.++......+..............+..+...+.....++.+.+......",
"++++..+.......++...++....+...++....+.#+......................+......+++....+........+++..++.........+.........+.....+...++......",
"++++.+........+++..++.+.#.+.....+.+.+...+....+................++....+..++...++.............+..+........+.+....+...+.+..+++......",
"+++...+........++.+..++.....++++++++++.+..+....+....+.++++.+......+..+..++............#..+......+..++.++.++............++.......",
"+++............++..+.+...+++..+..++...+++++.+...+.+.++...++++..+++++..+++.+++....+..++++.++........+#..................++.......",
"+++..+.........+++.+.+....+++++.++..++..+..+++++++.+++..+++++..++..+.++++++++++...+.......+....+..+...+.+...+.+..+...+.+........",
"+++.+..+.......+++.+...+.+++.+.++++.+....+..+#+..+.++++.+.....+........++.+...++++++.++.....++++.+..++...++++.....++..++........",
"+++.+++.........++...+...++...+.++....+...........+++...++...+...++..++++++++++.++++.+.........++.+..+++.....+..+.....++........",
"++.++.+.........++..++..+++.+..+..+++++....+++.++++.......+++++..+.+.+++++.+++++..+....+..+..++.................++.+..++........",
"++++++++...+....++.++..++..+..++++...+...+.+..+....+..+.+..+++....++.+++++++++++++.++...+.+..++...+.++......+.+......+++.....+..",
"++.++.+.........++.++..++....+++++.+...+.++...+..+++..++...++.+...++.++.+++.+++++++.+..+..+.+.+.+..........+..++.....+++.......+",
"++..+.+..+......++..+..++...+.....++..............+.+.++...+.++..++..++++++++++++++....+..........+.+..+...+.........++.........",
"+.++.+++.+......+++.+..++.............++.++.+...+................+..+++.++++++++++++...................+...........+.++.....+...",
"..+.+++..+.....+.++.+++..+++.+.......+++.+.+.+..+.........+......+.+++++++..+++++.+++........+............+.......++.++.......+.",
".+.+.+...+.......+++.++.++++.+........++.+.+.+.++..+.+.+.....++..+.++++++++.++..+.++++.+...........+......+.+..+.++..++...+.++.+",
"...++............+++..+.+++..+.+.+....................+......+.+...+++.++.++++++++++++..+...++..............+....+..++...+..++..",
".....++...........+++.++.+.........++++.+.+..+..............++...+++++.++++++.++..+.+++..+.++.++..++....++.......+..++.....+++..",
"..+.+.++++........+++.++....+.+.......+.....++.+............+.+.++++++++++...+++++++++++......+....+.............+..++.....++..+",
"++..+.............+++..+....+.....++......+..+....++..+..++..++.++++..+++++++++...+++++++........++...........+....++...+.......",
"+.+.++.+++.....+...+++.++.+..............+++...+..++.+...++.++..+++.++++..++++++++++++++++....++.++...+...++.+.....++.........+.",
"..++.+..++.........+++....++++++.+++++.+++++++++......+.++++++.++++++++++..++++++++++++++++.......+....+++....+++..++........+.."};
