/* XPM */
static char * demise4_xpm[] = {
"8 24 4 1",
" 	c None",
".	c #000000",
"+	c #FFFF00",
"@	c #008000",
"........",
"........",
"........",
"..+.+.+.",
".+.+++.+",
"..+.+.+.",
".+++++++",
"..+.+.+.",
".+.+++.+",
"..+.+.+.",
"....@@..",
".@..@@..",
"@@.@@...",
".@.@@.@.",
"..@@..@@",
"...@.@@.",
".@.@.@..",
".@..@...",
"@@.@@.@.",
"@..@...@",
"@.@@.@.@",
"@..@..@@",
"@@.@@.@.",
".@.@@.@."};
