/* XPM */
static char * demise1_xpm[] = {
"8 24 4 1",
" 	c None",
".	c #000000",
"+	c #008000",
"@	c #FFFF00",
"..++++..",
".++.+++.",
".+.+++++",
"++.+++++",
"++++++++",
".++++++.",
".@.@@.@.",
".@@@@@@.",
".@@@@@@.",
"..@@@@..",
".++++++.",
"++++++++",
"++++++++",
"@@++++@@",
"@@++++@@",
"..++++..",
".++++++.",
".++++++.",
"...++...",
"+++..+++",
"+++..+++",
"+++..+++",
"........",
"........"};
