/* XPM */
static char * exit1_xpm[] = {
"16 24 5 1",
" 	c None",
".	c #008000",
"+	c #000000",
"@	c #FFFF00",
"#	c #FF0000",
".+++++@@@@+++.++",
"++.+@@++++@@++..",
"+.+@++#+##++@+.+",
"++@+#+##+#+#+@++",
"+@+#####+#+##+@+",
"+@++#+#+####++@+",
"@+###+#+##+#+#+@",
"@+#+###+######+@",
"@+#+#+##+#+#+#+@",
"@+######+#+###+@",
"@+#+#+#+####+#+@",
"@+###+##+#+#+#+@",
"@+#+####+#+###+@",
"@+#+#+##+###+#+@",
"@+#+###++#+###+@",
"@+###+##+#+#+#+@",
"@+#+#+##+#+#+#+@",
"@+###+##+#####+@",
"@+#+###+##+#+#+@",
"@++++++++++++++@",
"@@@@@@@@@@@@@@@@",
"++++++++++++++++",
"@@@@.@@@@@@@@@@@",
"+.+...++.++.++.+"};
