/* XPM */
static char * exit2_xpm[] = {
"16 24 4 1",
" 	c None",
".	c #008000",
"+	c #000000",
"@	c #FFFF00",
".+++++@@@@+++.++",
"++.+@@++++@@++..",
"+.+@++++++++@+.+",
"++@++++++++++@++",
"+@++++++++++++@+",
"+@++++++++++++@+",
"@++++++++++++++@",
"@++++++++++++++@",
"@++++++++++++++@",
"@++++++++++++++@",
"@++++++++++++++@",
"@++++++++++++++@",
"@++++++++++++++@",
"@++++++++++++++@",
"@++++@+@@+@++++@",
"@++++++++++++++@",
"@+++@+@@@@+@+++@",
"@++++++++++++++@",
"@++@@@@@@@@@@++@",
"@++++++++++++++@",
"@@@@@@@@@@@@@@@@",
"++++++++++++++++",
"@@@@.@@@@@@@@@@@",
"+.+...++.++.++.+"};
