/* XPM */
static char * spell1_1_xpm[] = {
"8 8 4 1",
" 	c None",
".	c #000000",
"+	c #FFFF00",
"@	c #FF0000",
"..+@....",
"+...+@..",
"......+.",
"..@+@..@",
".@+..+.+",
".+@....@",
"..@+..+.",
"...@+@.."};
