/* XPM */
static char * leaf5_xpm[] = {
"16 24 4 1",
" 	c None",
".	c #000000",
"+	c #008000",
"@	c #FFFF00",
"..+++..++...@@@.",
"...++.....+@@@..",
"...+++...++@@@..",
"....++..++++@@@.",
"@@...++.+++...@@",
".@@@....+++.....",
"..@@@@...+......",
"..@@@@@@.+......",
"...@@@@@@.++....",
".+...@@@@...++++",
"++++....@@....+.",
"++++.....@....+.",
".++++@@..@@@.+..",
"..+++.@@.@..@...",
"....++..@...+@..",
".....+..@..+.@..",
"...+++..@..+..@.",
"..+...+.@.+...@.",
".+.....+++.....@",
"@......@.+.@@...",
".@...@@.+.@@@@.+",
"+.@@@...+.@..@@.",
".+.....++.....@.",
"..+..++..+....@."};
