/* XPM */
static char * rock2_xpm[] = {
"16 24 5 1",
" 	c None",
".	c #000000",
"+	c #FF0000",
"@	c #FFFF00",
"#	c #008000",
"................",
"..+..........@..",
".+++........@+@.",
"..+#.#....#.#@..",
"...##......##...",
"..#.#......#.#..",
"....#.....#.....",
".......+........",
"......+@+....+..",
"#......+....+++.",
"#......#.....+..",
"##....#....#.#..",
"###....#....###.",
"#.##........#...",
"#.####..........",
"##.####......#..",
"#.#..##.....##..",
"###.####....###.",
"##..#.##...##.#.",
"####.###...#.##.",
".###.###...###..",
"..#####.....#...",
"....##......#...",
"....##.........."};
