/* XPM */
static char * left2_xpm[] = {
"8 24 4 1",
" 	c None",
".	c #000000",
"+	c #008000",
"@	c #FFFF00",
"...+++..",
"..++.++.",
"..+++.+.",
".++++.++",
".+++++++",
"..@@@@@.",
"..@.@@@.",
".@@@@@@.",
"..@@@@@.",
"...@@@..",
"..+++++.",
"..+++++.",
"..+.+++.",
"...+++..",
"@@+++.+.",
"@@++.++.",
"........",
"..++++..",
"..++++..",
"...+++..",
"...+++..",
"........",
"..++++..",
"..++++.."};
