/* XPM */
static char * mace1_xpm[] = {
"8 8 3 1",
" 	c None",
".	c #FFFF00",
"+	c #000000",
".+.++.+.",
"+......+",
"...++...",
"+....+.+",
"+......+",
"..+.....",
"+......+",
".+.++.+."};
