/* XPM */
static char * overlay_xpm[] = {
"128 144 3 1",
" 	c None",
".	c #000000",
"+	c #FFFFFF",
"................................................................................................................................",
"................................................................................................................................",
"................................................................................................................................",
"................................................................................................................................",
"................................................................................................................................",
"................................................................................................................................",
"................................................................................................................................",
"................................................................................................................................",
"................................................................................................................................",
"................................................................................................................................",
"................................................................................................................................",
".................++..+...+...+++.+...+.+++.+..+.+..+..++..+++....+++..+++...++..+++..+..+..++..+++.+++..++..+...+...............",
"................+..+.++..+....+..++..+.+...+..+.+.+..+..+.+..+...+..+.+..+.+..+.+..+.+..+.+..+..+...+..+..+.++..+...............",
"................+..+.+.+.+....+..+.+.+.+...+..+.+.+..+..+.+..+...+..+.+..+.+..+.+..+.+..+.+.....+...+..+..+.+.+.+...............",
"................++++.+.+.+....+..+.+.+.+++.+..+.++...+..+.+++....+++..+++..+..+.+..+.+..+.+.....+...+..+..+.+.+.+...............",
"................+..+.+..++....+..+..++.+...+..+.+.+..+..+.+..+...+....+..+.+..+.+..+.+..+.+..+..+...+..+..+.+..++...............",
"................+..+.+...+...+++.+...+.+....++..+..+..++..+..+...+....+..+..++..+++...++...++...+..+++..++..+...+...............",
"................................................................................................................................",
"................................................................................................................................",
"................................................................................................................................",
".........................................................+++..++..+++...........................................................",
".........................................................+...+..+.+..+..........................................................",
".........................................................+...+..+.+..+..........................................................",
".........................................................+++.+..+.+++...........................................................",
".........................................................+...+..+.+..+..........................................................",
".........................................................+....++..+..+..........................................................",
"................................................................................................................................",
"................................................................................................................................",
"................................................................................................................................",
"................................................................................................................................",
"................................................................................................................................",
"................................................................................................................................",
"................................................................................................................................",
"................................................................................................................................",
"................................................................................................................................",
"................................++++++++++++++++++++++++++++++++++++++++++++++++++++++++++++++++................................",
"...............................++..............................................................++...............................",
"..............................++................................................................++..............................",
"..............................+...++++++++.....+++++++++..+++++++++++..++++++++.......+++++++....+..............................",
"..............................+...+++++++++....+++++++++..+++++++++++..+++++++++.....+++++++++...+..............................",
"..............................+...+++....+++...+++............+++......+++....+++...++++...++++..+..............................",
"..............................+...+++.....++...+++............+++......+++.....++...+++.....+++..+..............................",
"..............................+...+++.....++...+++............+++......+++.....++...+++.....+++..+..............................",
"..............................+...+++.....++...+++............+++......+++.....++...+++.....+++..+..............................",
"..............................+...+++....+++...++++++++.......+++......+++....+++...+++.....+++..+..............................",
"..............................+...+++++++++....++++++++.......+++......+++++++++....+++.....+++..+..............................",
"..............................+...++++++++.....++++++++.......+++......++++++++.....+++.....+++..+..............................",
"..............................+...+++++++......+++............+++......+++++++......+++.....+++..+..............................",
"..............................+...+++.++++.....+++............+++......+++.++++.....+++.....+++..+..............................",
"..............................+...+++..++++....+++............+++......+++..++++....+++.....+++..+..............................",
"..............................+...+++...++++...+++............+++......+++...++++...++++...++++..+..............................",
"..............................+...+++....++++..+++++++++......+++......+++....++++...+++++++++...+..............................",
"..............................+...+++.....+++..+++++++++......+++......+++.....+++....+++++++....+..............................",
"..............................++................................................................++..............................",
"...............................++..............................................................++...............................",
"................................++++++++++++++++++++++++++++++++++++++++++++++++++++++++++++++++................................",
"................................................................................................................................",
"................................................................................................................................",
"...............................+++++....+++++...++++++..++++++..++....++....+++....++++++...++++++..............................",
"..............................+++++++..+++++++..++++++..++++++..++....++...+++++...+++++++..++++++..............................",
"..............................++...++..++...++..++........++....++....++..+++.+++..++..+++..++..................................",
"..............................++.......++...++..++........++....++....++..++...++..++...++..++..................................",
"..............................++.......++...++..++........++....++....++..++...++..++...++..++..................................",
"..............................++++++...++...++..+++++.....++....++....++..++...++..++..+++..+++++...............................",
"...............................++++++..++...++..+++++.....++....++.++.++..+++++++..++++++...+++++...............................",
"........................+++........++..++...++..++........++....++.++.++..+++++++..++++.....++......++...+..+.+.................",
".......................++..+.......++..++...++..++........++....++++++++..++...++..+++++....++........+.+.+.+.+.................",
".......................+..++..++...++..++...++..++........++....++++++++..++...++..++.+++...++.......+..+.+.+.+.................",
".......................++..+..+++++++..+++++++..++........++....+++..+++..++...++..++..+++..++++++..+...+.+.+.+.................",
"........................+++....+++++....+++++...++........++....+++..+++..++...++..++...++..++++++..+++..+..+.+.................",
"................................................................................................................................",
"................................................................................................................................",
"................................................................................................................................",
"................................................................................................................................",
"................................................................................................................................",
"................................................................................................................................",
"................................................................................................................................",
"................................................................................................................................",
"................................................................................................................................",
"................................................................................................................................",
"................................................................................................................................",
"................................................................................................................................",
"................................................................................................................................",
"................................................................................................................................",
"................................................................................................................................",
"................................................................................................................................",
"................................................................................................................................",
"................................................................................................................................",
".....++......+....................+.............+..........................................................+....................",
".....+.+.....+....................+.............+............+...+.........+..............................+.+...+...+...........",
".....+.+..+..+..+...++..++...+...++...+.+.++...++..+..+.+....+...+....+....+....+..+.+..++.+...+++....++..+.....+...+....+......",
".....++..+.+.+.+.+.+.+.+....+.+.+.+...+.+.+.+.+.+.+.+.++.+...+++.++..+.+...+++.+.+.++.+.+.+.+.+......+..+.++....+++.++..+.+.....",
".....+.+.++..+.++..+.+..++..++..+.+...+.+.+.+.+.+.++..+......+...+.+.++....+...++..+....+.+.+..++....+..+.+.....+...+.+.++......",
".....+.+.+...+.+...+.+....+.+...+.+...+.+.+.+.+.+.+...+......+...+.+.+.....+...+...+....+.+.+....+...+..+.+.....+...+.+.+.......",
".....+.+..++.+..++..+.+.++...++..++....++.+.+..++..++.+.......++.+.+..++....++..++.+....+.+.+.+++.....++..+......++.+.+..++.....",
"................................................................................................................................",
"...............................................................................+................................................",
".................++..+..+.+..+....++........................+...+++......+...+.........+...+....................................",
"................+..+.++.+.+..+...+..+..+..++...+..+.+...++..+...+..+.+.+.+...+.+..++...+......++..+..++...+++..+................",
"................+....++.+.+..+...+....+.+.+.+.+.+.++.+.+.+..+...+..+.+.+.++..+.+.+.....+...+.+...+.+.+.+.+....+.+...............",
"................+.++.+.++.+..+...+.++.++..+.+.++..+....+.+..+...+++..+.+.+.+.+.+.+.....+...+.+...++..+.+..++..++................",
"................+..+.+.++.+..+...+..+.+...+.+.+...+....+.+..+...+....+.+.+.+.+.+.+.....+...+.+...+...+.+....+.+.................",
".................++..+..+..++.....++...++.+.+..++.+.....+.+.+...+.....++.+++.+.+..++...+++.+..++..++.+.+.+++...++...............",
"................................................................................................................................",
"................................................................................................................................",
"................................................+............++.................................................................",
"............................................................+..+...............+......+.........................................",
"..............................+.+..+..+.+...+++.+..++..++......+....++..+.+....+..++..+....+..+.+...............................",
"..............................+.+.+.+.++.+.+....+.+..+.+.+...++....+..+.++.+...+.+.+..+++.+.+.++.+..............................",
"..............................+.+.++..+.....++..+.+..+.+.+.....+...+..+.+......+.+.+..+...++..+.................................",
"...............................+..+...+.......+.+.+..+.+.+..+..+...+..+.+......+.+.+..+...+...+.................................",
"...............................+...++.+....+++..+..++..+.+...++.....++..+......+..+.+..++..++.+.................................",
"................................................................................................................................",
"................................................................................................................................",
"................................................................................................................................",
"................................................................................................................................",
"................................................................................................................................",
"................................................................................................................................",
"................................................................................................................................",
"................................................................................................................................",
"................................................................................................................................",
"..........................++...........................++...++..+++..+...+.+++.+...+..++.....+..+...............................",
".........................+..+...........+...+.........+..+.+..+.+..+.+...+..+..++..+.+..+...+.+...+.............................",
".........................+.....+...+....+...+....+....+....+..+.+..+..+.+...+..++..+.+......+...+.+..+..........................",
"..........................++..+.+.+.+...+++.++..+.+...+....+..+.+++....+....+..+.+.+.+.++...++..+.+.+.+.........................",
"............................+.++..++....+...+.+.++....+....+..+.+......+....+..+..++.+..+...+...+.+.++..........................",
".........................+..+.+...+.....+...+.+.+.....+..+.+..+.+......+....+..+..++.+..+...+...+.+.+...........................",
"..........................++...++..++....++.+.+..++....++...++..+......+...+++.+...+..++....+...+.+..++.........................",
"................................................................................................................................",
"................................................................................................................................",
".........................+...................................+......+..........................+................................",
"........................+.+........................................+.+.....................+....................................",
"........................+...++..+.+....++.+...++..+.+...+....+.++..+...++..+.+..++.+...++..+...+..++..++........................",
"........................++.+..+.++.+...+.+.+.+..+.++.+.+.+...+.+.+.++.+..+.++.+.+.+.+.+.+..+++.+.+..+.+.+.......................",
"........................+..+..+.+......+.+.+.+..+.+....++....+.+.+.+..+..+.+....+.+.+.+.+..+...+.+..+.+.+.......................",
"........................+..+..+.+......+.+.+.+..+.+....+.....+.+.+.+..+..+.+....+.+.+.+.+..+...+.+..+.+.+.......................",
"........................+...++..+......+.+.+..++..+.....++...+.+.+.+...++..+....+.+.+..+.+..++.+..++..+.+.......................",
"................................................................................................................................",
"................................................................................................................................",
"................................................................................................................................",
"................................................................................................................................",
"................................................................................................................................",
"................................................................................................................................",
"................................................................................................................................"};
