/* XPM */
static char * overlay_xpm[] = {
"160 48 2 1",
" 	c #000000",
".	c #FFFFFF",
"                                                                                                                                                                ",
"                                                                                                                                                                ",
"                                                                                                                                                                ",
"                                                                                                                                                                ",
"                                                                                                                                                                ",
"                                                                                                                                                                ",
"                                                                                                                                                                ",
"                                                ................................................................                                                ",
"                                               ..                                                              ..                                               ",
"                                              ..                                                                ..                                              ",
"                                              .   ........     .........  ...........  ........       .......    .                                              ",
"                                              .   .........    .........  ...........  .........     .........   .                                              ",
"                                              .   ...    ...   ...            ...      ...    ...   ...     ...  .                                              ",
"                                              .   ...     ..   ...            ...      ...     ..   ..       ..  .                                              ",
"                                              .   ...     ..   ...            ...      ...     ..   ..       ..  .                                              ",
"                                              .   ...     ..   ...            ...      ...     ..   ..       ..  .                                              ",
"                                              .   ...    ...   ........       ...      ...    ...   ..       ..  .                                              ",
"                                              .   .........    ........       ...      .........    ..       ..  .                                              ",
"                                              .   ........     ........       ...      ........     ..       ..  .                                              ",
"                                              .   .......      ...            ...      .......      ..       ..  .                                              ",
"                                              .   ... ....     ...            ...      ... ....     ..       ..  .                                              ",
"                                              .   ...  ....    ...            ...      ...  ....    ..       ..  .                                              ",
"                                              .   ...   ....   ...            ...      ...   ....   ...     ...  .                                              ",
"                                              .   ...    ....  .........      ...      ...    ....   .........   .                                              ",
"                                              .   ...     ...  .........      ...      ...     ...    .......    .                                              ",
"                                              ..                                                                ..                                              ",
"                                               ..                                                              ..                                               ",
"                                                ................................................................                                                ",
"                                                                                                                                                                ",
"                                                                                                                                                                ",
"                                               .....    .....   ......  ......  ..    ..    ...    ......   ......                                              ",
"                                              .......  .......  ......  ......  ..    ..   .....   .......  ......                                              ",
"                                              ..   ..  ..   ..  ..        ..    ..    ..  ... ...  ..  ...  ..                                                  ",
"                                              ..       ..   ..  ..        ..    ..    ..  ..   ..  ..   ..  ..                                                  ",
"                                              ..       ..   ..  ..        ..    ..    ..  ..   ..  ..   ..  ..                                                  ",
"                                              ......   ..   ..  .....     ..    ..    ..  ..   ..  ..  ...  .....                                               ",
"                                               ......  ..   ..  .....     ..    .. .. ..  .......  ......   .....                                               ",
"                                                   ..  ..   ..  ..        ..    .. .. ..  .......  ....     ..                                                  ",
"                                                   ..  ..   ..  ..        ..    .. .. ..  ..   ..  .....    ..                                                  ",
"                                              ..   ..  ..   ..  ..        ..    ........  ..   ..  .. ...   ..                                                  ",
"                                              .......  .......  ..        ..    ........  ..   ..  ..  ...  ......                                              ",
"                                               .....    .....   ..        ..    ...  ...  ..   ..  ..   ..  ......                                              ",
"                                                                                                                                                                ",
"                                                                                                                                                                ",
"                                                                                                                                                                ",
"                                                                                                                                                                ",
"                                                                                                                                                                ",
"                                                                                                                                                                "};
