/* XPM */
static char * right2_xpm[] = {
"16 16 4 1",
" 	c None",
".	c #000000",
"+	c #008000",
"@	c #FFFF00",
"...++++.........",
"..++++++........",
".++++++++.......",
"..@+@@.@........",
"..@@+@@@@.......",
"...@+@@@........",
"................",
"++.+++++........",
"++.+++++.+@.....",
"++.++.++.+@.....",
"++.++...........",
"...@@+++........",
"...+++++........",
"...+.++.........",
"..+.+++++.......",
"..+.+++++......."};
