/* XPM */
static char * rock2_xpm[] = {
"16 24 4 1",
" 	c None",
".	c #008000",
"+	c #FFFF00",
"@	c #000000",
"................",
".......+........",
"...@............",
".........++++...",
"........@.+.++..",
".@..+....+.+.+..",
"........@.+.+...",
"..@.....@@.@.+..",
".........@@.@...",
"..........@@....",
".....++.........",
"......++........",
"...+.+.+.....@..",
"..@.+.+.........",
".@.@.@+.....@...",
"..@.@...........",
"..@@............",
"..........+.....",
".........+.+....",
".@......@.+...+.",
"........@@......",
"....@...........",
"................",
"................"};
