/* XPM */
static char * title_mod_xpm[] = {
"128 48 4 1",
" 	c None",
".	c #000000",
"+	c #008000",
"@	c #FFFF00",
"..........+..@..@@.@@@@@@@@@@@@@@@@@@@@@@@@@@@@@@@@@@@@@@@@@@@@@@@@@@@@@@@@@@@@@@@@@@@@@@@@@@@@@@@@@@@@@@@......................",
".........+..@..@.@@@.@+@@@@+@@@@+@@@+@@@+@@@@+@@@@+@@@@@@+@@@+@@@@+@@@@@@+@@@+@@@@+@@@@@@+@@@@+@@@+@@@@+@@......................",
".........+...@...+.+@@@@+@@@@+@@@@+@@@+@@@+@@@@+@@@@+@+@@@@+@@@+@@@@+@+@@@@+@@@+@@@@+@+@@@@+@@@@+@@@+@@@@+......................",
"..........+....@+.@.@.@@@@+@+@@+@+@+@+@+@+@@+@+@@+@+@+@@+@+@+@+@@+@+@+@@+@+@+@+@@+@+@+@@+@+@@+@+@+@+@@+@+@......................",
"..........+.++.....++@@.@+@+@++@+@+@+@+@+@++@+@++@+@+@++@+@+@+@++@+@+@++@+@+@+@++@+@+@++@+@++@+@+@+@++@+@+......................",
".........++++++..@....+@+++++.++++@+++@+++.++++@++++.+@++++@+++.++++@+.++++@+++.++++.+@++++.++++@+++.++++.......................",
"........+..+++++...+.+.+++.++++.+++.+++.++++.++++.++++++.+++.++++.++++++.+++.++++.++++++.++++.+++.++++.+++......................",
".......+...+++++++....++...................+++...........+.++.....+.+.+......+.+................................................",
"......+.....+++++++..+.++.++++++++++...+++.+.++.+++..+++..++.+.++..+.+..++++..+.+.++..........++++++++..........................",
"......+.....+++++++....+..+++++++++++..+++..++..+++..++++.+.++.+++.++..++++++..++.+++.........+++++++...........................",
".....++.......++++++..+.+..++++++++++..+++..+.+.+++..++++..++..+++....++++++++....+++.........++................................",
"....+.+.........++++...+++....+++......+++.+.+..+++..+++++..+..+++.+.++++...+++...+++.........++................................",
"....+.+.++.......++++...++.+..+++.+.+..+++..++..+++..++++++....+++...+++..+..++.+.+++.........++................................",
"...+...+++++......+++..++.+...+++..+.+.+++..+.+.+++..+++.++..+.+++..++++..........+++.........++................................",
"..+....++++++......++..+.+++..+++..++..+++.+.+..+++..+++.+++...+++..+++..+..+..+..+++.........++++++............................",
"..+....++++++.......+..+++.+..+++.+.+..+++..+@+.+++..+++..+++..+++..+++.+.+.......+++.........+++++.............................",
"...+....++++++........+.+++...+++..++..+++.+.+..+++..+++...++..+++..+++..+..++++..+++.........++................................",
"...+...................++.++..+++..+.+.+++..+...+++..+++.+.+++.+++..++++..+.++++..+++.........++................................",
"..+++................++.......+++..++..++++..+.++++..+++....++++++...+++......++..+++.........++................................",
"..+++.....@...........++.++...+++.+.++..+++....+++...+++..+..+++++.+.++++....+++..+++.........++................................",
"..++....@@@@@........+.+..++.++++..++.+.++++..++++.+.+++...+.+++++....+++++.+++...+++.........++................................",
"...+.....@@@.........++++.++++++....++...++++++++....+++..+...++++..+..+++++++..+.++++++++++..+++++++++.........................",
"........@@@@@........++.+...+++..+.++.++...++++....+.+++.+@++..+++.+....+++++..+..+++++++++...++++++++..........................",
".........@+@..........++..........+..+.+.+......+.+.......+..+.......+.........++...............................................",
"..........++.......................+........+..........+...............+.....++.++..............................................",
"...........+...........++++++++++..+...++++...+.+++.+....+++.+++++++.....+++...++..++..++++++++..+........+.....................",
"...........+...........+++++++++++...++++++++...+++...+..+++.+++++++++...++++.++.+.+++.+++++++..++.......++.....................",
"...........++...........++++++++++..++++..++++..+++..+.+.+++.+++...++++..++++...+..+++.++.......++.......++.....................",
"............+....+.........+++......+++....+++..+++..++..+++.+++.+...++..+++++..+..+++.++.+..++.+++.....++......................",
"............+.++++.........+++.+.+.++++....++++.+++.+.+..+++.+++...+.++..++++++....+++.++..+.+...+++...+++......................",
"....++.+....++..+++........+++.....+++......+++.+++..+.+.+++.+++.+...++..+++.++..+.+++.++......+..+++.+++..+....................",
".....++++...+...+..........+++..+..+++......+++.+++..+@+.+++.+++...++++..+++.+++...+++.++++++..+...+++++...+....................",
"......+..+.++..............+++.++..+++......+++.+++.+.+..+++.+++++++++...+++..+++..+++.+++++..+..+..+++..++.....................",
"..........++...............+++...+.+++......+++.+++..+...+++.+++++++...+.+++...++..+++.++......+++..+++.+.++....................",
"..........+................+++.++..+++......+++.+++...+..+++.+++...++....+++.+.+++.+++.++.+..+.+..+.+++..++.....................",
"..........+................+++..+..++++....++++.++++....++++.+++.+.+++.+.+++....++++++.++..++.+.++..+++.++......................",
"..........+...........++...+++...+..+++....+++...+++....+++..+++....++...+++..+..+++++.++..+..+..+..+++..+++....................",
".........++............++.++++.+.+..++++..++++.+.++++..++++..+++..+..++..+++.+...+++++.++.........+.+++...+.....................",
".........+.............++++++...+.+..++++++++.....++++++++...+++.+...+++.+++...+..++++.+++++++++....+++.+.......................",
".........................+++..+..++....++++...+.+...++++...+..++...+..++.+++.++.+..+++.++++++++..+..++...+.+....................",
"................................+...+.......+..+.++.......++.....++............+.+...............+.....+....+...................",
".............................+....+....+..+..++..+..+.+..+..+.+..+..+..+.+..+..+...+.+..+..++..+..+.+.+..++.....................",
"................................................................................................................................",
"................................................................................................................................",
"................................................................................................................................",
"................................................................................................................................",
"................................................................................................................................",
"................................................................................................................................"};
