/* XPM */
static char * title_mod_xpm[] = {
"128 48 5 1",
" 	c None",
".	c #000000",
"+	c #008000",
"@	c #FFFF00",
"#	c #FF0000",
"..........+..@..@@.@@@@@@@@@@@@@@@@@@@@@@@@@@@@@@@@@@@@@@@@@@@@@@@@@@@@@@@@@@@@@@@@@@@@@@@@@@@@@@@@@@@@@@@@@.@@..@..............",
".........+..@..@.@@@.@+@@@@+@@@@+@@@+@@@+@@@@+@@@@+@@@@@@+@@@+@@@@+@@@@@@+@@@+@@@@+@@@@@@+@@@@+@@@+@@@@+@@@@@@.@................",
".........+...@...+.+@@@@+@@@@+@@@@+@@@+@@@+@@@@+@@@@+@+@@@@+@@@+@@@@+@+@@@@+@@@+@@@@+@+@@@@+@@@@+@@@+@@@@+@.@++...+.............",
"..........+....@+.@.@.@@@@+@+@@+@+@+@+@+@+@@+@+@@+@+@+@@+@+@+@+@@+@+@+@@+@+@+@+@@+@+@+@@+@+@@+@+@+@+@@+@+@.++..+................",
"..........+.++.....++@@.@+@+@++@+@+@+@+@+@++@+@++@+@+@++@+@+@+@++@+@+@++@+@+@+@++@+@+@++@+@++@+@+@+@++@+@+++.+..................",
".........++++++..@....+@+++++.++++@+++@+++.++++@++++.+@++++@+++.++++@+.++++@+++.++++.+@++++.++++@+++.++++.......................",
"........+..+++++...+.+.+++.++++.+++.+++.++++.++++.++++++.+++.++++.++++++.+++.++++.++++++.++++.+++.++++.+++......................",
".......+...+++++++....++...................+++...........+.++.....+.+.+......+.+.....+.+++.++...................................",
"......+.....+++++++..+.++.++++++++++...+++.+.++.+++..+++..++.+.++..+.+..++++..+.+.++..++.++.+.++++++++..+..+....................",
"......+.....+++++++....+..+++++++++++..+++..++..+++..++++.+.++.+++.++..++++++..++.+++..+++++..+++++++....+...+..................",
".....++.......++++++..+.+..++++++++++..+++..+.+.+++..++++..++..+++....++++++++....+++.+.++.+..++......+.++......................",
"....+.+.........++++...+++....+++......+++.+.+..+++..+++++..+..+++.+.++++...+++...+++..++.+.+.++.+.+++.....+....................",
"....+.+.++.......++++...++.+..+++.+.+..+++..++..+++..++++++....+++...+++..+..++.+.+++..+++++..++..+.+.+.+...+...................",
"...+...+++++......+++..++.+...+++..+.+.+++..+.+.+++..+++.++..+.+++..++++..........+++.+.+.+.+.++.....+.+.+......................",
"..+....++++++......++..+.+++..+++..++..+++.+.+..+++..+++.+++...+++..+++..+..+..+..+++..+.+++..++++++.+......+...................",
"..+....++++++.......+..+++.+..+++.+.+..+++..+@+.+++..+++..+++..+++..+++.+.+.......+++..++..+..+++++...+.+.......................",
"...+....++++++........+.+++...+++..++..+++.+.+..+++..+++...++..+++..+++..+..++++..+++...+.+.+.++....++...+.+....................",
"...+...................++.++..+++..+.+.+++..+...+++..+++.+.+++.+++..++++..+.++++..+++.++.+++..++.+.+..++........................",
"..+++................++.......+++..++..++++..+.++++..+++....++++++...+++......++..+++...+.+.+.++.++.+.+.+.+.....................",
"..+++.....@...........++.++...+++.+.++..+++....+++...+++..+..+++++.+.++++....+++..+++..+.+.+..++..++.+.+...+....................",
"..++....@@@@@........+.+..++.++++..++.+.++++..++++.+.+++...+.+++++....+++++.+++...+++.........++.........+......................",
"...+.....@@@.........++++.++++++....++...++++++++....+++..+...++++..+..+++++++..+.++++++++++..+++++++++....+....................",
"........@@@@@........++.+...+++....++.++...++++....+.+++.+@++..+++.+....+++++..+..+++++++++...++++++++..........................",
".........@+@..........++..+.....+.+..+.+.+......+.+.......+..+.......+.........++...........+.............+.....................",
"..........++........+.......................+..........+...............+.....++.++.................+.++.+....+..................",
"...........+.......+...++++++++++..+...++++...+.+++.+....+++.+++++++.....+++...++..++..++++++++..+..++.+..+.+...................",
"...........+.........+.+++++++++++...++++++++...+++...+..+++.+++++++++...++++.++.+.+++.+++++++..++.+.++..++.....................",
"...........++...........++++++++++..++++..++++..+++..+.+.+++.+++...++++..++++...+..+++.++.......++..+.+..++.....................",
"............+....+.+..+....+++......+++....+++..+++..++..+++.+++.+...++..+++++..+..+++.++.+..++.+++..+..++..+...................",
"............+.++++..+..+.+.+++.+.+.++++.+..++++.+++.+.+..+++.+++...+.++..++++++....+++.++..+.+...+++...+++......................",
"....++.+....++..+++...+.++.+++.....+++...+..+++.+++..+.+.+++.+++.+...++..+++.++..+.+++.++......+..+++.+++..+....................",
".....++++...+...+...+..++..+++..+..+++..+...+++.+++..+@+.+++.+++...++++..+++.+++...+++.++++++..+...+++++...+.+..................",
"......+..+.++...........++.+++.++..+++.+.++.+++.+++.+.+..+++.+++++++++...+++..+++..+++.+++++..+..+..+++..++.....................",
"..........++.......+..+.+..+++...+.+++..++..+++.+++..+...+++.+++++++...+.+++...++..+++.++......+.+..+++.+.++...+................",
"..+.......+.........+..++..+++.++..+++..+...+++.+++...+..+++.+++...++....+++.+.+++.+++.++.+..+.++.+.+++..++.+.+.................",
".....+....+.......+......+.+++..+..++++..+.++++.++++....++++.+++.+.+++.+.+++....++++++.++..++.+.+...+++.++......................",
".++.......+...........++...+++...+..+++....+++...+++....+++..+++....++...+++..+..+++++.++..+..+..+..+++..+++.+..................",
"...+..+..++.........+..++.++++.+.+..++++..++++.+.++++..++++..+++..+..++..+++.+...+++++.++.........+.+++...+.....................",
"..+.+..+.+........+....++++++...+.+..++++++++.....++++++++...+++.+...+++.+++...+..++++.+++++++++....+++.+.....+.................",
"....+..+....+........+...+++..+..++....++++...+.+...++++...+..++...+..++.+++.++.+..+++.++++++++..+..++...+.+....................",
"....+..+..+..+......+..+........+...+.......+..+.++.......++.....++............+.+...............+.....+....+...................",
"+...+...+.+..+..........+....+....+....+..+..++..+..+.+..+..+.+..+..+..+.+..+..+...+.+..+..++..+..+.+.+..++.....................",
".+...+..+.+...+.................................................................................................................",
".+.+.+..+..+..+....##...........................................................................................................",
"..+..+...+.+..+...#.##..........................................................................................................",
"..+..+.+.+.+..+..#.##.#.........................................................................................................",
"..+....+.+.+.+....###.#.........................................................................................................",
"..+....+...+.+...#.###.#........................................................................................................"};
