/* XPM */
static char * title_xpm[] = {
"96 32 2 1",
" 	c #000000",
".	c #008000",
"          ..........   ...      ...  ...       ..       ....      ..          ........          ",
"          ...........  ...      ...  ....      ...     ......     ...         .......           ",
"           ..........  ...      ...  ....      ...    ........    ...         ..                ",
"              ...      ...      ...  .....     ...   ....   ...   ...         ..                ",
"              ...      ...      ...  ......    ...   ...     ..   ...         ..                ",
"              ...      ...      ...  ... ..    ...  ....          ...         ..                ",
"              ...      ...      ...  ... ...   ...  ...           ...         ......            ",
"              ...      ...      ...  ...  ...  ...  ...           ...         .....             ",
"              ...      ...      ...  ...   ..  ...  ...     ....  ...         ..                ",
"              ...      ...      ...  ...   ... ...  ....    ....  ...         ..                ",
"              ...      ....    ....  ...    ......   ...      ..  ...         ..                ",
"         ..   ...       ...    ...   ...     .....   ....    ...  ...         ..                ",
"          .. ....       ....  ....   ...     .....    ..... ...   ...         ..                ",
"          ......         ........    ...      ....     .......    ..........  .........         ",
"            ...            ....      ...       ...      .....     .........   ........          ",
"                                                                                                ",
"                                                                                                ",
"       ..........      ....     ...      ... .......     ...       ..  ........  .        .     ",
"       ...........   ........   ...      ... .........   ....      ... .......  ..       ..     ",
"        ..........  ....  ....  ...      ... ...   ....  ....      ... ..       ..       ..     ",
"           ...      ...    ...  ...      ... ...     ..  .....     ... ..       ...     ..      ",
"           ...     ....    .... ...      ... ...     ..  ......    ... ..        ...   ...      ",
"           ...     ...      ... ...      ... ...     ..  ... ..    ... ..         ... ...       ",
"           ...     ...      ... ...      ... ...   ....  ... ...   ... ......      .....        ",
"           ...     ...      ... ...      ... .........   ...  ...  ... .....        ...         ",
"           ...     ...      ... ...      ... .......     ...   ..  ... ..           ...         ",
"           ...     ...      ... ...      ... ...   ..    ...   ... ... ..           ...         ",
"           ...     ....    .... ....    .... ...   ...   ...    ...... ..           ...         ",
"      ..   ...      ...    ...   ...    ...  ...    ..   ...     ..... ..           ...         ",
"       .. ....      ....  ....   ....  ....  ...     ..  ...     ..... ..           ...         ",
"       ......        ........     ........   ...     ... ...      .... .........    ...         ",
"         ...           ....         ....      ..      .. ...       ... ........     ..          "};
