/* XPM */
static char * wall1_xpm[] = {
"16 24 3 1",
" 	c None",
".	c #000000",
"+	c #008000",
"..+.++..+...+.++",
"+..+++++++.+++..",
"+.+++.++++++++.+",
".+++.+.++++++++.",
".++.+++.+++.+++.",
"+++.++++.+.+.+.+",
"++.+++++.+.++.++",
"+.+++++++.++++..",
"..++++++.+.++.++",
".+.++++.+++..++.",
"+++.+..++++++..+",
".+++.++.+++++++.",
"..+.+++.++++++.+",
"++.+.+.+..+++.++",
"+++.+.++++.+.+++",
".+.+++.++++..++.",
"..++++.+++.+++..",
".++++.+.++.++++.",
"++.++.++..+++...",
"+++..++++..+..++",
".+..++++++...+++",
"+.+.+++++..+..+.",
"..+..+++..+++...",
".+++..+.+..+.+.+"};
