/* XPM */
static char * water_xpm[] = {
"16 24 4 1",
" 	c None",
".	c #000000",
"+	c #008000",
"@	c #1F1F64",
"................",
"..+...+....+..+.",
".+.......+...+..",
"....+...+..+....",
"..+..+......+...",
".....+..+...+...",
".+......+.+.....",
"..+.+..+..+...+.",
".............+..",
"..+..@@@@@@..+..",
".+..@@@@@.......",
"...@.@@..@@@..+.",
".+.@@..@@@@@@.+.",
"....@@@@@...@...",
".....@@@..@@....",
".+.@@....@@@@...",
"...@@@@@@@@@@.+.",
".....@@@@@......",
"...@@.@@@.@@@...",
".+..@@...@@@....",
".....@@@@@@...+.",
"..+.........+...",
"..+..+...+..+.+.",
"................"};
