/* XPM */
static char * jewel_xpm[] = {
"16 16 5 1",
" 	c None",
".	c #000000",
"+	c #008000",
"@	c #FF0000",
"#	c #FFFF00",
"...............+",
"...+..@....+....",
".....@.@........",
".+...@.@@...+.+.",
"....#@.#@@......",
"+...@@.@#@@..+..",
"....@#.@@#@@....",
"...@@@.@...@....",
"......@.@@@.....",
"....@@#.@@@...+.",
".+...@@.@#@..+..",
"......@@.@......",
".......@.@......",
"..+.....@..+....",
".....+........+.",
"................"};
